<svg  viewBox="0 0 49 49" fill="none" xmlns="http://www.w3.org/2000/svg">
<g clip-path="url(#clip0_5534_23774)">
<path d="M24.4992 4.5C13.4549 4.5 4.5 13.4549 4.5 24.4992C4.5 35.5434 13.4549 44.5 24.4992 44.5C35.5434 44.5 44.5 35.5434 44.5 24.4992C44.5 13.4549 35.5434 4.5 24.4992 4.5ZM28.6625 35.496C27.6331 35.9023 26.8137 36.2105 26.199 36.4238C25.5861 36.6371 24.8733 36.7438 24.0623 36.7438C22.8162 36.7438 21.846 36.439 21.1552 35.8312C20.4644 35.2234 20.1207 34.453 20.1207 33.5167C20.1207 33.1527 20.1461 32.7802 20.1969 32.401C20.2494 32.0217 20.3324 31.595 20.4458 31.1159L21.7343 26.5648C21.8477 26.1279 21.9459 25.7131 22.0238 25.3271C22.1017 24.9377 22.1389 24.5804 22.1389 24.2553C22.1389 23.6763 22.0187 23.2699 21.78 23.0414C21.5379 22.8128 21.0824 22.7011 20.4035 22.7011C20.0716 22.7011 19.7296 22.7502 19.3792 22.8534C19.0321 22.9601 18.7307 23.0566 18.4835 23.1514L18.8238 21.7495C19.667 21.4058 20.4746 21.1112 21.245 20.8674C22.0153 20.6202 22.7434 20.4983 23.4291 20.4983C24.6668 20.4983 25.6217 20.7997 26.2939 21.3957C26.9626 21.9933 27.2996 22.7705 27.2996 23.7254C27.2996 23.9235 27.2759 24.2723 27.2302 24.7701C27.1844 25.2695 27.0981 25.725 26.9728 26.1432L25.6911 30.6807C25.5861 31.0448 25.493 31.4613 25.4084 31.9269C25.3254 32.3925 25.2848 32.748 25.2848 32.9868C25.2848 33.5895 25.4185 34.001 25.6894 34.2194C25.9569 34.4378 26.4259 34.5478 27.0896 34.5478C27.4029 34.5478 27.7533 34.492 28.1495 34.3836C28.5423 34.2752 28.8268 34.1787 29.0062 34.0958L28.6625 35.496ZM28.4357 17.0782C27.838 17.6335 27.1184 17.9112 26.2769 17.9112C25.4371 17.9112 24.7125 17.6335 24.1097 17.0782C23.5104 16.5229 23.2073 15.8473 23.2073 15.0583C23.2073 14.271 23.5121 13.5938 24.1097 13.0333C24.7125 12.4712 25.4371 12.1919 26.2769 12.1919C27.1184 12.1919 27.8397 12.4712 28.4357 13.0333C29.0333 13.5938 29.333 14.271 29.333 15.0583C29.333 15.849 29.0333 16.5229 28.4357 17.0782Z" fill="#45B369"/>
</g>
<defs>
<clipPath id="clip0_5534_23774">
<rect width="40" height="40" fill="white" transform="translate(4.5 4.5)"/>
</clipPath>
</defs>
</svg>
